<svg id="Layer_1" data-name="Layer 1" xmlns="http://www.w3.org/2000/svg" viewBox="0 0 1356.12 1356.12"><path fill="#fff;" d="M354.84,452c59.38,0,116.28,28.9,160.22,81.36,23.08,27.57,41.32,60,54.19,96.33a373.57,373.57,0,0,1,0,244.62c-12.87,36.35-31.11,68.76-54.19,96.33C471.12,1023.1,414.22,1052,354.84,1052s-116.27-28.9-160.21-81.36c-23.09-27.57-41.32-60-54.2-96.33a373.57,373.57,0,0,1,0-244.62c12.88-36.35,31.11-68.76,54.2-96.33C238.57,480.9,295.47,452,354.84,452m0-100c-185,0-335,179.09-335,400s150,400,335,400,335-179.09,335-400-150-400-335-400Z"/><path d="M261.34,799c-8.88-12.44-11.95-27.86-11-43.09,2.09-32.67,24.24-62.94,53.9-77.86,46-24.43,109-10.55,138.14,32.92,13.81,20.06,19.73,44.53,14.16,67.71A57.81,57.81,0,0,1,447.34,799c-4.48-6.08-8.55-11.34-12.75-16-25.47-29-63.86-42.65-101.32-34.93-30.07,5.95-53.89,25-71.93,50.91Z"/><path d="M903.34,799c-8.88-12.44-12-27.86-11-43.09,2.09-32.67,24.24-62.94,53.9-77.86,46-24.43,109-10.55,138.14,32.92,13.81,20.06,19.73,44.53,14.16,67.71a57.81,57.81,0,0,1-9.19,20.32c-4.48-6.08-8.55-11.34-12.75-16-25.47-29-63.86-42.65-101.32-34.93-30.07,5.95-53.89,25-71.93,50.91Z"/><path d="M159.41,192.13,138.46,442.66a20,20,0,0,0,27.36,20.24l208.94-83.61a20,20,0,0,0,5.85-33.53l-188-166.92A20,20,0,0,0,159.41,192.13Z"/><path d="M992.84,452c59.38,0,116.28,28.9,160.22,81.36,23.08,27.57,41.32,60,54.19,96.33a373.57,373.57,0,0,1,0,244.62c-12.87,36.35-31.11,68.76-54.19,96.33-43.94,52.46-100.84,81.36-160.22,81.36s-116.27-28.9-160.21-81.36c-23.09-27.57-41.32-60-54.2-96.33a373.57,373.57,0,0,1,0-244.62c12.88-36.35,31.11-68.76,54.2-96.33C876.57,480.9,933.47,452,992.84,452m0-100c-185,0-335,179.09-335,400s150,400,335,400,335-179.09,335-400-150-400-335-400Z"/><path d="M1189.52,191.61l21,250.53a20,20,0,0,1-27.36,20.24L974.16,378.77a20,20,0,0,1-5.84-33.53l188-166.92A20,20,0,0,1,1189.52,191.61Z"/><path d="M647.36,790.5,578.67,989.3a30,30,0,0,0,0,19.58l68.59,198.74c9.3,27,47.4,27,56.71,0l68.69-198.79a30,30,0,0,0,0-19.59L704.08,790.51C694.78,763.57,656.67,763.56,647.36,790.5Z"/><path d="M246.37,413.7c0,52.27,128.29-74.49,213-41.88,74.88,28.82,211.5,305,212,305.18s144.28-272.32,219-300.89c85.36-32.62,199,90.09,199,37.59,0-98.46-188.24-124.7-421-124.7s-422,17.65-422,124.7"/></svg>